# xmcd
#
# Track frame offsets:
#	180
#	19646
#	42231
#	62784
#	86148
#	104183
#	120717
#	148396
#	167462
#	184789
#	199002
#	229072
#	245527
#	260647
#
# Disc length: 3686 seconds
#
# Revision: 0
# Processed by: cddbd v1.4PL0 Copyright (c) Steve Scherf et al.
# Submitted via: EasyCDDAExtractor 5.0.5.1
#
DISCID=cd0e640e
DTITLE=Ray, Goodman and Brown - Ray, Goodman and Brown Greatest Hits
DYEAR=1994
DGENRE=Soul
TTITLE0=Special Lady
TTITLE1=Inside Of You
TTITLE2=Happy Anniversary
TTITLE3=Who's Gonna Make the First Move
TTITLE4=Sweet Baby
TTITLE5=I Could Have Loved You
TTITLE6=I Don't Wana Go
TTITLE7=Don't Cry Out Loud
TTITLE8=With You
TTITLE9=Look At Me (I'm In Love)
TTITLE10=Sexy Mama
TTITLE11=Just Because He Wants To Make Love (Doesn't Mean He Loves You)
TTITLE12=Bad habit (Lovin' You)
TTITLE13=Breakfast In Bed
EXTD=
EXTT0=
EXTT1=
EXTT2=
EXTT3=
EXTT4=
EXTT5=
EXTT6=
EXTT7=
EXTT8=
EXTT9=
EXTT10=
EXTT11=
EXTT12=
EXTT13=
PLAYORDER=
